<svg preserveAspectRatio="none" width="100%" height="100%" overflow="visible" style="display: block;" viewBox="0 0 25 25.0746" fill="none" xmlns="http://www.w3.org/2000/svg">
<g id="Ethereum Coin">
<path id="Coin" d="M24.6284 15.5632C22.9605 22.2755 16.1822 26.3743 9.47761 24.7003C2.78524 23.0222 -1.29477 16.2238 0.373213 9.51144C2.04119 2.79912 8.81532 -1.29966 15.5036 0.374315C22.2123 2.02778 26.2923 8.84677 24.6284 15.5632Z" fill="var(--fill-0, #ECEFF0)"/>
<g id="Ethereum">
<path d="M12.509 15.6401C12.4604 15.6567 12.4327 15.6143 12.3997 15.5948C10.7809 14.6365 9.16382 13.6776 7.54856 12.718C7.53292 12.7101 7.51669 12.7034 7.5 12.698V12.6766L7.52865 12.6601C7.56934 12.6493 7.60939 12.6363 7.64861 12.6211L11.4634 10.8802C11.8033 10.7248 12.1433 10.5719 12.4832 10.4179H12.5075C12.5075 10.4667 12.5075 10.51 12.5075 10.5563C12.5088 12.2511 12.5093 13.9457 12.509 15.6401Z" fill="#343535"/>
<path d="M12.5114 10.4191H12.4871C12.4871 10.3704 12.4919 10.3217 12.4919 10.2706C12.4919 8.367 12.4919 6.46326 12.4919 4.55937C12.4864 4.51047 12.4897 4.46096 12.5017 4.41324H12.5119C12.7115 4.7089 12.8853 5.02065 13.0689 5.32605C14.5232 7.74562 15.9768 10.1649 17.4295 12.5838C17.4436 12.6077 17.4548 12.6325 17.4674 12.6588C17.4263 12.65 17.3858 12.6381 17.3465 12.6232C17.0798 12.5024 16.8123 12.3797 16.5481 12.2565C16.1343 12.0665 15.7204 11.8768 15.3063 11.6875L13.3112 10.781C13.0456 10.6583 12.7785 10.539 12.5114 10.4191Z" fill="#2F3030"/>
<path d="M12.5033 4.41072C12.4913 4.45844 12.488 4.50795 12.4935 4.55685C12.4935 6.46042 12.4935 8.36415 12.4935 10.268C12.4935 10.3168 12.4906 10.3655 12.4887 10.4166C12.1487 10.5705 11.8088 10.7235 11.4688 10.8789L7.65408 12.6197C7.61486 12.635 7.57481 12.648 7.53412 12.6587C7.64436 12.4288 7.78763 12.2203 7.91827 12.0002C9.43187 9.47668 10.9466 6.95369 12.4625 4.43118C12.4725 4.4172 12.4833 4.40387 12.495 4.39124L12.5033 4.41072Z" fill="#828384"/>
<path d="M12.5114 10.4191C12.7785 10.539 13.0457 10.6583 13.3123 10.7791L15.3073 11.6856C15.7217 11.8746 16.1357 12.0643 16.5491 12.2546C16.8153 12.3768 17.0833 12.5005 17.3475 12.6213C17.3869 12.6362 17.4273 12.6481 17.4684 12.6569C17.517 12.7178 17.4451 12.7202 17.4233 12.7334C17.009 12.9818 16.5928 13.2268 16.1776 13.4733C14.9858 14.1805 13.7944 14.8876 12.6032 15.5946C12.5731 15.6121 12.5405 15.625 12.509 15.6401C12.509 13.946 12.509 12.252 12.509 10.5575C12.5095 10.5112 12.5109 10.4654 12.5114 10.4191Z" fill="#131313"/>
<path d="M12.4919 16.6024L15.6122 14.7578C16.2079 14.4052 16.8033 14.0522 17.3984 13.6989L17.4523 13.6692C17.4576 13.7179 17.4241 13.7437 17.4037 13.7719C16.0439 15.6947 14.6841 17.6167 13.3243 19.5382C13.0669 19.9025 12.81 20.2688 12.5502 20.6302C12.5366 20.6492 12.5157 20.7384 12.4739 20.6439C12.5069 20.6156 12.4924 20.5776 12.4924 20.5465C12.4927 19.2313 12.4925 17.9166 12.4919 16.6024Z" fill="#2F3030"/>
<path d="M12.4916 16.6027C12.4916 17.9169 12.4916 19.2307 12.4916 20.5443C12.4916 20.5779 12.5062 20.6159 12.4732 20.6417C12.4037 20.5998 12.3736 20.5248 12.3275 20.4629C10.7507 18.2353 9.17482 16.0073 7.59971 13.779C7.5798 13.7507 7.56134 13.7205 7.54095 13.6894C7.58174 13.6655 7.6036 13.6981 7.62739 13.7123C9.22193 14.6566 10.8161 15.6017 12.41 16.5477C12.4397 16.5662 12.4649 16.5852 12.4916 16.6027Z" fill="#828384"/>
<path d="M12.5036 4.41069L12.492 4.39267C12.5133 4.37903 12.5104 4.399 12.5138 4.40923L12.5036 4.41069Z" fill="var(--fill-0, #393939)"/>
</g>
</g>
</svg>
