<svg preserveAspectRatio="none" width="100%" height="100%" overflow="visible" style="display: block;" viewBox="0 0 25 25.0748" fill="none" xmlns="http://www.w3.org/2000/svg">
<g id="Bitcoin Coin">
<path id="Coin" d="M24.6284 15.5632C22.9605 22.2755 16.1822 26.3743 9.47761 24.7003C2.78524 23.0222 -1.29477 16.2238 0.373213 9.51144C2.04119 2.79912 8.81532 -1.29966 15.5036 0.374315C22.2123 2.02778 26.2923 8.84677 24.6284 15.5632Z" fill="var(--fill-0, #F7931A)"/>
<path id="Symbol" d="M18.4192 10.8904C18.6438 9.21872 17.3775 8.34602 15.6414 7.75603L16.1806 5.49439L14.808 5.16252L14.2852 7.37499C13.9216 7.28895 13.554 7.20291 13.1904 7.12916L13.7133 4.91669L12.3244 4.58482L11.7852 6.84645C11.4911 6.7768 11.1928 6.72354 10.8987 6.65389L9.00739 6.1991L8.66017 7.66179C8.66017 7.66179 9.6855 7.88714 9.64873 7.90762C10.2043 8.04693 10.3105 8.41157 10.2901 8.69018L9.68141 11.2673C9.71818 11.2837 9.76719 11.2837 9.8203 11.3206C9.76719 11.3042 9.73452 11.3042 9.68141 11.2878L8.84808 14.8933C8.77863 15.0654 8.60298 15.3112 8.22308 15.2252C8.23942 15.2416 7.21409 14.9793 7.21409 14.9793L6.56458 16.5649L8.3538 16.9829C8.68468 17.0689 9.01556 17.1385 9.32602 17.2287L8.7868 19.5108L10.1594 19.8427L10.6986 17.581C11.0826 17.6835 11.4461 17.7736 11.7933 17.8596L11.2541 20.1049L12.6267 20.4368L13.1659 18.1546C15.5107 18.5726 17.2631 18.38 17.9739 16.2372C18.5458 14.5286 17.9208 13.5535 16.6708 12.9103C17.5858 12.7013 18.2476 12.1072 18.4192 10.8904ZM15.3309 15.3276C14.9306 17.0361 12.0507 16.147 11.1275 15.9217L11.8383 12.8898C12.7778 13.1192 15.7476 13.5371 15.3309 15.3276ZM15.7108 10.8904C15.3473 12.4391 12.9494 11.6934 12.1692 11.5008L12.8309 8.75164C13.5948 8.94011 16.0948 9.27198 15.7108 10.8904Z" fill="var(--fill-0, white)"/>
</g>
</svg>
