<svg preserveAspectRatio="none" width="100%" height="100%" overflow="visible" style="display: block;" viewBox="0 0 25 25.0746" fill="none" xmlns="http://www.w3.org/2000/svg">
<g id="Tether">
<path id="Coin" d="M0.436523 9.52734C2.09581 2.85 8.83459 -1.22732 15.4873 0.4375H15.4883C22.1614 2.08233 26.2197 8.8663 24.5645 15.5479C22.9049 22.225 16.1623 26.3018 9.49316 24.6367C2.83616 22.9673 -1.22263 16.2045 0.436523 9.52734Z" fill="var(--fill-0, #F6F8FC)" stroke="var(--stroke-0, #F6F8FC)" stroke-width="0.130911"/>
<path id="Tether_2" fill-rule="evenodd" clip-rule="evenodd" d="M7.90304 7.27262H17.2629C17.4862 7.27262 17.6925 7.38869 17.8039 7.57701L20.5309 12.1874C20.6722 12.4265 20.6303 12.7283 20.4285 12.9222L12.9226 20.1369C12.6795 20.3707 12.2884 20.3707 12.0452 20.1369L4.5495 12.9319C4.3431 12.7335 4.30446 12.423 4.45623 12.1824L7.37107 7.56221C7.48459 7.38228 7.68604 7.27262 7.90304 7.27262ZM16.0544 9.33102V10.6246H13.3881V11.5215C15.2607 11.6174 16.6656 12.011 16.6761 12.4829L16.676 13.4665C16.6656 13.9384 15.2607 14.332 13.3881 14.4279V16.629H11.6177V14.4279C9.74512 14.332 8.34018 13.9384 8.32976 13.4665L8.32983 12.4829C8.34024 12.011 9.74512 11.6174 11.6177 11.5215V10.6246H8.95146V9.33102H16.0544ZM12.5029 13.7521C14.5013 13.7521 16.1716 13.4192 16.5804 12.9747C16.2337 12.5977 14.9799 12.3011 13.3881 12.2196V13.1587C13.1028 13.1733 12.8066 13.181 12.5029 13.181C12.1992 13.181 11.903 13.1733 11.6177 13.1587V12.2196C10.0259 12.3011 8.77209 12.5977 8.42545 12.9747C8.83423 13.4192 10.5045 13.7521 12.5029 13.7521Z" fill="var(--fill-0, #009393)"/>
</g>
</svg>
