<svg preserveAspectRatio="none" width="100%" height="100%" overflow="visible" style="display: block;" viewBox="0 0 25 25.0748" fill="none" xmlns="http://www.w3.org/2000/svg">
<g id="Solana Coin">
<path id="Coin" d="M24.6284 15.5632C22.9605 22.2755 16.1822 26.3743 9.47761 24.7003C2.78524 23.0222 -1.29477 16.2238 0.373213 9.51144C2.04119 2.79912 8.81532 -1.29966 15.5036 0.374315C22.2123 2.02778 26.2923 8.84677 24.6284 15.5632Z" fill="var(--fill-0, #000008)"/>
<path id="Solana" d="M20.2211 16.4083L17.6417 19.1112C17.5856 19.17 17.5178 19.2168 17.4424 19.2488C17.367 19.2808 17.2857 19.2973 17.2035 19.2972H4.97599C4.91764 19.2972 4.86057 19.2805 4.81178 19.2493C4.76299 19.218 4.72461 19.1735 4.70136 19.1212C4.6781 19.069 4.67098 19.0112 4.68088 18.955C4.69077 18.8988 4.71725 18.8467 4.75705 18.805L7.33837 16.1021C7.3943 16.0435 7.46192 15.9968 7.53706 15.9648C7.61221 15.9328 7.69328 15.9162 7.77526 15.9161H20.0021C20.0604 15.9161 20.1175 15.9328 20.1663 15.964C20.2151 15.9953 20.2534 16.0398 20.2768 16.0921C20.3 16.1444 20.3071 16.2021 20.2972 16.2583C20.2873 16.3145 20.2609 16.3666 20.2211 16.4083ZM17.6417 10.9654C17.5856 10.9066 17.5178 10.8598 17.4424 10.8278C17.367 10.7959 17.2857 10.7794 17.2035 10.7794H4.97599C4.91764 10.7794 4.86057 10.7961 4.81178 10.8273C4.76299 10.8586 4.72461 10.9031 4.70136 10.9554C4.6781 11.0077 4.67098 11.0654 4.68088 11.1216C4.69077 11.1778 4.71725 11.2299 4.75705 11.2716L7.33837 13.9746C7.3943 14.0331 7.46192 14.0798 7.53706 14.1118C7.61221 14.1438 7.69328 14.1604 7.77526 14.1605H20.0021C20.0604 14.1605 20.1175 14.1439 20.1663 14.1126C20.2151 14.0813 20.2534 14.0368 20.2768 13.9846C20.3 13.9323 20.3071 13.8745 20.2972 13.8183C20.2873 13.7621 20.2609 13.71 20.2211 13.6683L17.6417 10.9654ZM4.97599 9.02383H17.2035C17.2857 9.02386 17.367 9.00738 17.4424 8.97538C17.5178 8.94339 17.5856 8.89658 17.6417 8.83786L20.2211 6.13492C20.2609 6.09324 20.2873 6.04111 20.2972 5.98492C20.3071 5.92874 20.3 5.87096 20.2768 5.81868C20.2534 5.7664 20.2151 5.72189 20.1663 5.69063C20.1175 5.65937 20.0604 5.64271 20.0021 5.64271H7.77526C7.69328 5.64285 7.61221 5.65942 7.53706 5.69141C7.46192 5.72339 7.3943 5.77011 7.33837 5.82867L4.75772 8.53161C4.71795 8.57324 4.69149 8.62533 4.68157 8.68144C4.67165 8.73756 4.67872 8.7953 4.70189 8.84756C4.72506 8.89982 4.76334 8.94432 4.81203 8.97563C4.86072 9.00695 4.9177 9.02369 4.97599 9.02383Z" fill="url(#paint0_linear_0_100)"/>
</g>
<defs>
<linearGradient id="paint0_linear_0_100" x1="5.99547" y1="19.6226" x2="18.4866" y2="5.21153" gradientUnits="userSpaceOnUse">
<stop offset="0.08" stop-color="#9945FF"/>
<stop offset="0.3" stop-color="#8752F3"/>
<stop offset="0.5" stop-color="#5497D5"/>
<stop offset="0.6" stop-color="#43B4CA"/>
<stop offset="0.72" stop-color="#28E0B9"/>
<stop offset="0.97" stop-color="#19FB9B"/>
</linearGradient>
</defs>
</svg>
