<svg preserveAspectRatio="none" width="100%" height="100%" overflow="visible" style="display: block;" viewBox="0 0 230.175 240" fill="none" xmlns="http://www.w3.org/2000/svg">
<path id="Subtract" d="M202.105 0C217.608 3.61688e-07 230.175 12.5674 230.175 28.0702V102.456C220.874 102.456 213.333 109.997 213.333 119.298C213.333 128.6 220.874 136.14 230.175 136.14V211.93C230.175 227.433 217.608 240 202.105 240H28.0702C12.5674 240 1.13035e-07 227.433 0 211.93V136.14C9.30164 136.14 16.8421 128.6 16.8421 119.298C16.8421 109.997 9.30164 102.456 0 102.456V28.0702C0 12.5674 12.5674 3.61688e-07 28.0702 0H202.105Z" fill="var(--fill-0, #5D37C5)"/>
</svg>
