<svg preserveAspectRatio="none" width="100%" height="100%" overflow="visible" style="display: block;" viewBox="0 0 25 23" fill="none" xmlns="http://www.w3.org/2000/svg">
<path id="Vector" fill-rule="evenodd" clip-rule="evenodd" d="M0 1.21053L1.19048 0H21.4286L22.619 1.21053V3.63158H23.8095L25 4.84211V9.68421V10.8947V16.9474V21.7895L23.8095 23H1.19048L0 21.7895V4.84211V1.21053ZM22.619 16.9474H17.8571C15.8848 16.9474 14.2857 15.3214 14.2857 13.3158C14.2857 11.3102 15.8848 9.68421 17.8571 9.68421H22.619V6.05263H21.4286H2.38095V20.5789H22.619V16.9474ZM20.2381 2.42105V3.63158H2.38095V2.42105H20.2381ZM16.6667 13.3158C16.6667 12.6473 17.1997 12.1053 17.8571 12.1053H22.619V14.5263H17.8571C17.1997 14.5263 16.6667 13.9843 16.6667 13.3158Z" fill="var(--fill-0, white)"/>
</svg>
